<svg width="193" height="132" viewBox="0 0 193 132" fill="none" xmlns="http://www.w3.org/2000/svg">
<path d="M30.1268 34.9525L50.546 39.079L28.9646 88.683L48.0664 92.5433L44.8694 100.124L5.34832 92.1374L30.1268 34.9525Z" fill="white" fill-opacity="0.8"/>
<path d="M111.194 104.18L88.7394 103.545L87.8274 88.2493L70.0745 87.7473L62.8298 102.812L53.5215 102.549L83.5535 42.4142L106.296 43.0574L111.194 104.18ZM73.4394 80.8316L87.3538 81.2251L85.8849 55.0612L73.4394 80.8316Z" fill="white" fill-opacity="0.8"/>
<path d="M151.402 36.4758C156.826 35.5385 161.329 35.4747 164.911 36.2845C168.556 37.0834 171.607 38.7644 174.063 41.3275C175.663 43.0646 177.022 45.1029 178.14 47.4426C179.259 49.7822 180.096 52.5602 180.652 55.7765C181.132 58.5514 181.359 61.3698 181.334 64.2319C181.309 67.094 181.047 69.8996 180.548 72.6487C180.101 75.3239 179.412 77.9111 178.48 80.4103C177.6 82.8356 176.519 85.0359 175.236 87.0111C172.828 90.7397 169.783 93.604 166.102 95.6041C162.473 97.5303 157.821 98.9838 152.145 99.9647C146.658 100.913 142.146 101.108 138.607 100.551C135.068 99.9932 132.104 98.6221 129.713 96.4373C128.02 94.9113 126.529 92.8632 125.241 90.2931C124.016 87.7121 123.049 84.3719 122.34 80.2727C121.13 73.2725 121.281 66.8165 122.792 60.9048C124.356 54.9191 127.162 49.9203 131.21 45.9083C133.647 43.4737 136.486 41.4892 139.728 39.9547C142.97 38.4201 146.861 37.2605 151.402 36.4758ZM150.244 93.4736C151.694 93.223 152.941 92.358 153.985 90.8787C155.08 89.3254 155.979 87.3841 156.68 85.0546C157.434 82.6511 158.012 79.9857 158.416 77.0582C158.882 74.1199 159.175 71.1142 159.293 68.0411C159.411 64.9681 159.377 61.9538 159.191 58.9983C159.058 55.9688 158.784 53.2559 158.369 50.8594C157.803 47.58 157.069 45.4011 156.168 44.3228C155.319 43.1705 154.265 42.7033 153.003 42.9213C151.553 43.172 150.274 44.0424 149.168 45.5326C148.061 47.0228 147.094 48.9435 146.267 51.2948C145.491 53.5721 144.87 56.18 144.404 59.1183C143.99 61.9827 143.686 64.9253 143.494 67.9462C143.365 70.9562 143.356 73.9129 143.468 76.8162C143.643 79.7086 143.938 82.3531 144.352 84.7495C144.973 88.3443 145.782 90.7699 146.779 92.0266C147.827 93.2093 148.983 93.6916 150.244 93.4736Z" fill="white" fill-opacity="0.8"/>
</svg>
