<svg width="327" height="140" viewBox="0 0 327 140" fill="none" xmlns="http://www.w3.org/2000/svg">
<path d="M72.1679 101.968L50.2303 106.803L45.6328 92.1859L28.289 96.0081L24.9177 112.381L15.8239 114.385L30.3608 48.759L52.5796 43.8624L72.1679 101.968ZM29.8745 88.4825L43.4683 85.4867L35.6924 60.4618L29.8745 88.4825Z" fill="white" fill-opacity="0.8"/>
<path d="M101.661 98.2248L81.0872 100.81L86.3459 38.7099L107.015 36.1127L101.661 98.2248Z" fill="white" fill-opacity="0.8"/>
<path d="M116.896 95.7288L128.171 34.4347L153.985 33.7227C157.952 33.6133 161.418 33.9338 164.383 34.6844C167.412 35.3691 169.911 36.6127 171.881 38.4151C173.916 40.2157 175.454 42.6062 176.497 45.5866C177.603 48.5652 178.216 52.2297 178.336 56.58C178.465 61.2502 177.984 65.8413 176.892 70.3531C175.864 74.8631 174.023 78.9154 171.369 82.51C168.715 86.1045 165.179 89.0511 160.76 91.3498C156.404 93.5827 150.963 94.7892 144.438 94.9692L116.896 95.7288ZM143.005 88.2861C145.116 88.2279 146.948 87.3131 148.5 85.5416C150.114 83.7044 151.459 81.4265 152.537 78.7077C153.676 75.9232 154.585 72.889 155.263 69.6051C156.003 66.2554 156.554 63.039 156.917 59.9558C157.344 56.8709 157.62 54.1102 157.745 51.6738C157.934 49.2357 158.015 47.5048 157.986 46.4812C157.932 44.498 157.473 42.974 156.612 41.9094C155.812 40.779 154.421 40.2411 152.438 40.2958L147.831 40.4229L138.879 88.4L143.005 88.2861Z" fill="white" fill-opacity="0.8"/>
<path d="M237.758 99.2552L215.393 97.1523L215.484 81.8295L197.802 80.167L189.587 94.7259L180.316 93.8542L214.218 35.813L236.87 37.9428L237.758 99.2552ZM201.612 73.4863L215.471 74.7894L215.717 48.5854L201.612 73.4863Z" fill="white" fill-opacity="0.8"/>
<path d="M296.492 111.022L274.537 106.268L273.447 60.9465L254.927 102.022L246.483 100.193L272.05 43.3565L294.474 48.2119L294.879 93.9741L313.615 52.3564L322.247 54.2254L296.492 111.022Z" fill="white" fill-opacity="0.8"/>
</svg>
